<svg viewBox="19.99436 53.96405263157895 220.41822 238.38168421052632" xmlns="http://www.w3.org/2000/svg" style="max-height: 500px" width="220.41822" height="238.38168421052632">
  <g transform="translate(16,18)">
    
    <g>
      <rect fill="#6FA58A" transform="rotate(-45 63 93)" rx="18" height="142" width="36" y="22" x="45"/>
      <rect fill="#95B78F" transform="rotate(45 165 93)" rx="18" height="142" width="36" y="22" x="147"/>
      <rect fill="#4E806A" transform="rotate(45 63 216)" rx="18" height="142" width="36" y="145" x="45"/>
      <rect fill="#F2B44E" transform="rotate(-45 165 216)" rx="18" height="142" width="36" y="145" x="147"/>
      <circle fill="#EBA9A9" r="46" cy="155" cx="114"/>
      <g fill="#D98787">
        <circle r="5" cy="137" cx="96"/>
        <circle r="5" cy="132" cx="114"/>
        <circle r="5" cy="138" cx="132"/>
        <circle r="5" cy="155" cx="92"/>
        <circle r="5" cy="155" cx="114"/>
        <circle r="5" cy="155" cx="136"/>
        <circle r="5" cy="175" cx="101"/>
        <circle r="5" cy="178" cx="123"/>
      </g>
    </g>

    
    <g transform="translate(252,58)">
      <text fill="#2E5B40" font-weight="400" font-size="114" font-family="Arial, Helvetica, sans-serif" y="92" x="0">i-classi</text>
      <text fill="#4D5A5D" font-weight="400" font-size="42" font-family="Arial, Helvetica, sans-serif" y="159" x="3">InterLymph</text>
      <text fill="#4D5A5D" font-weight="400" font-size="42" font-family="Arial, Helvetica, sans-serif" y="207" x="3">Classification System</text>
    </g>
  </g>
</svg>