<svg xmlns="http://www.w3.org/2000/svg" width="860" height="310" viewBox="0 0 860 310">
  <g transform="translate(16,18)">
    <!-- Icon -->
    <g>
      <rect x="45" y="22" width="36" height="142" rx="18" transform="rotate(-45 63 93)" fill="#6FA58A"/>
      <rect x="147" y="22" width="36" height="142" rx="18" transform="rotate(45 165 93)" fill="#95B78F"/>
      <rect x="45" y="145" width="36" height="142" rx="18" transform="rotate(45 63 216)" fill="#4E806A"/>
      <rect x="147" y="145" width="36" height="142" rx="18" transform="rotate(-45 165 216)" fill="#F2B44E"/>
      <circle cx="114" cy="155" r="46" fill="#EBA9A9"/>
      <g fill="#D98787">
        <circle cx="96" cy="137" r="5"/>
        <circle cx="114" cy="132" r="5"/>
        <circle cx="132" cy="138" r="5"/>
        <circle cx="92" cy="155" r="5"/>
        <circle cx="114" cy="155" r="5"/>
        <circle cx="136" cy="155" r="5"/>
        <circle cx="101" cy="175" r="5"/>
        <circle cx="123" cy="178" r="5"/>
      </g>
    </g>

    <!-- Wordmark -->
    <g transform="translate(252,58)">
      <text x="0" y="92" font-family="Arial, Helvetica, sans-serif" font-size="114" font-weight="400" fill="#2E5B40">i-classi</text>
      <text x="3" y="159" font-family="Arial, Helvetica, sans-serif" font-size="42" font-weight="400" fill="#4D5A5D">InterLymph</text>
      <text x="3" y="207" font-family="Arial, Helvetica, sans-serif" font-size="42" font-weight="400" fill="#4D5A5D">Classification System</text>
    </g>
  </g>
</svg>